<svg width="204" height="54" viewBox="0 0 204 54" fill="none" xmlns="http://www.w3.org/2000/svg">
<g filter="url(#filter0_ddiii_4210_1001)">
<g clip-path="url(#clip0_4210_1001)">
<rect x="3" width="48" height="48" rx="12" fill="#155EEF"/>
<rect width="48" height="48" transform="translate(3)" fill="url(#paint0_linear_4210_1001)"/>
<g filter="url(#filter1_d_4210_1001)">
<path opacity="0.4" d="M43.3504 21.9276C41.7913 23.4867 39.2636 23.4867 37.7045 21.9276C36.1454 20.3685 36.1454 17.8407 37.7045 16.2816C39.2636 14.7225 41.7913 14.7225 43.3504 16.2816C44.9095 17.8407 44.9095 20.3685 43.3504 21.9276Z" fill="url(#paint1_linear_4210_1001)"/>
<path opacity="0.6" d="M43.3456 21.9267C41.7865 23.4858 39.2587 23.4858 37.6996 21.9267L32.1239 16.351C30.5648 14.7919 28.037 14.7919 26.4779 16.351C24.9188 17.91 24.9188 20.4378 26.4779 21.9969L32.0536 27.5726C33.6127 29.1317 36.1405 29.1317 37.6996 27.5726L43.3456 21.9267Z" fill="url(#paint2_linear_4210_1001)"/>
<path d="M37.7003 27.5739C36.1412 29.133 33.6134 29.133 32.0544 27.5739L21.2329 16.7524C19.1541 14.6737 15.7838 14.6737 13.705 16.7524L9 21.4574C10.5591 19.8983 13.0869 19.8983 14.646 21.4574L26.4084 33.2198C27.9675 34.7789 30.4953 34.7789 32.0544 33.2198L37.7003 27.5739Z" fill="url(#paint3_linear_4210_1001)"/>
</g>
</g>
<rect x="4" y="1" width="46" height="46" rx="11" stroke="url(#paint4_linear_4210_1001)" stroke-width="2"/>
</g>
<path d="M63.7614 36V12.7273H79.9886V17.2955H69.3864V22.0682H79.1591V26.6477H69.3864V31.4318H79.9886V36H63.7614ZM100.443 18.5455L94.4545 36H88.0909L82.1136 18.5455H87.9659L91.1818 30.5682H91.3636L94.5909 18.5455H100.443ZM110.17 36.3295C108.345 36.3295 106.769 35.9697 105.443 35.25C104.125 34.5227 103.11 33.4886 102.398 32.1477C101.693 30.7992 101.341 29.197 101.341 27.3409C101.341 25.5379 101.697 23.9621 102.409 22.6136C103.121 21.2576 104.125 20.2045 105.42 19.4545C106.716 18.697 108.242 18.3182 110 18.3182C111.242 18.3182 112.379 18.5114 113.409 18.8977C114.439 19.2841 115.33 19.8561 116.08 20.6136C116.83 21.3712 117.413 22.3068 117.83 23.4205C118.246 24.5265 118.455 25.7955 118.455 27.2273V28.6136H103.284V25.3864H113.284C113.277 24.7955 113.136 24.2689 112.864 23.8068C112.591 23.3447 112.216 22.9848 111.739 22.7273C111.269 22.4621 110.727 22.3295 110.114 22.3295C109.492 22.3295 108.936 22.4697 108.443 22.75C107.951 23.0227 107.561 23.3977 107.273 23.875C106.985 24.3447 106.833 24.8788 106.818 25.4773V28.7614C106.818 29.4735 106.958 30.0985 107.239 30.6364C107.519 31.1667 107.917 31.5795 108.432 31.875C108.947 32.1705 109.561 32.3182 110.273 32.3182C110.765 32.3182 111.212 32.25 111.614 32.1136C112.015 31.9773 112.36 31.7765 112.648 31.5114C112.936 31.2462 113.152 30.9205 113.295 30.5341L118.398 30.6818C118.186 31.8258 117.72 32.822 117 33.6705C116.288 34.5114 115.352 35.1667 114.193 35.6364C113.034 36.0985 111.693 36.3295 110.17 36.3295ZM126.849 26.0455V36H121.293V18.5455H126.577V21.75H126.77C127.156 20.6818 127.815 19.8447 128.747 19.2386C129.679 18.625 130.789 18.3182 132.077 18.3182C133.304 18.3182 134.368 18.5947 135.27 19.1477C136.179 19.6932 136.884 20.4583 137.384 21.4432C137.891 22.4205 138.141 23.5644 138.134 24.875V36H132.577V25.9659C132.584 24.9962 132.338 24.2386 131.838 23.6932C131.346 23.1477 130.66 22.875 129.781 22.875C129.198 22.875 128.683 23.0038 128.236 23.2614C127.796 23.5114 127.455 23.8712 127.213 24.3409C126.978 24.8106 126.857 25.3788 126.849 26.0455ZM151.426 18.5455V22.6364H140.415V18.5455H151.426ZM142.722 14.3636H148.278V30.5114C148.278 30.8523 148.331 31.1288 148.438 31.3409C148.551 31.5455 148.714 31.6932 148.926 31.7841C149.138 31.8674 149.392 31.9091 149.688 31.9091C149.9 31.9091 150.123 31.8902 150.358 31.8523C150.6 31.8068 150.782 31.7689 150.903 31.7386L151.744 35.75C151.479 35.8258 151.104 35.9205 150.619 36.0341C150.142 36.1477 149.57 36.2197 148.903 36.25C147.6 36.3106 146.483 36.1591 145.551 35.7955C144.627 35.4242 143.919 34.8485 143.426 34.0682C142.941 33.2879 142.706 32.3068 142.722 31.125V14.3636ZM154.261 36V18.5455H159.818V36H154.261ZM157.045 16.5114C156.265 16.5114 155.595 16.2538 155.034 15.7386C154.473 15.2159 154.193 14.5871 154.193 13.8523C154.193 13.125 154.473 12.5038 155.034 11.9886C155.595 11.4659 156.265 11.2045 157.045 11.2045C157.833 11.2045 158.504 11.4659 159.057 11.9886C159.617 12.5038 159.898 13.125 159.898 13.8523C159.898 14.5871 159.617 15.2159 159.057 15.7386C158.504 16.2538 157.833 16.5114 157.045 16.5114ZM173.276 18.5455V22.6364H162.048V18.5455H173.276ZM164.389 36V17.6591C164.389 16.3106 164.643 15.1932 165.151 14.3068C165.658 13.4129 166.363 12.7462 167.264 12.3068C168.166 11.8598 169.207 11.6364 170.389 11.6364C171.162 11.6364 171.889 11.697 172.571 11.8182C173.26 11.9318 173.772 12.0341 174.105 12.125L173.219 16.1932C173.014 16.125 172.764 16.0682 172.469 16.0227C172.181 15.9773 171.908 15.9545 171.651 15.9545C170.999 15.9545 170.552 16.0985 170.31 16.3864C170.067 16.6742 169.946 17.0682 169.946 17.5682V36H164.389ZM179.347 42.5455C178.68 42.5455 178.051 42.4924 177.46 42.3864C176.869 42.2879 176.362 42.1553 175.938 41.9886L177.165 37.9545C177.71 38.1364 178.203 38.2424 178.642 38.2727C179.089 38.303 179.472 38.2311 179.79 38.0568C180.116 37.8902 180.366 37.5909 180.54 37.1591L180.756 36.6364L174.551 18.5455H180.369L183.585 31H183.767L187.028 18.5455H192.881L186.301 37.6705C185.983 38.625 185.532 39.4659 184.949 40.1932C184.373 40.928 183.627 41.5038 182.71 41.9205C181.801 42.3371 180.68 42.5455 179.347 42.5455Z" fill="#0C111D"/>
<defs>
<filter id="filter0_ddiii_4210_1001" x="0" y="-3" width="54" height="57" filterUnits="userSpaceOnUse" color-interpolation-filters="sRGB">
<feFlood flood-opacity="0" result="BackgroundImageFix"/>
<feColorMatrix in="SourceAlpha" type="matrix" values="0 0 0 0 0 0 0 0 0 0 0 0 0 0 0 0 0 0 127 0" result="hardAlpha"/>
<feOffset dy="1"/>
<feGaussianBlur stdDeviation="0.5"/>
<feComposite in2="hardAlpha" operator="out"/>
<feColorMatrix type="matrix" values="0 0 0 0 0.162923 0 0 0 0 0.162923 0 0 0 0 0.162923 0 0 0 0.08 0"/>
<feBlend mode="normal" in2="BackgroundImageFix" result="effect1_dropShadow_4210_1001"/>
<feColorMatrix in="SourceAlpha" type="matrix" values="0 0 0 0 0 0 0 0 0 0 0 0 0 0 0 0 0 0 127 0" result="hardAlpha"/>
<feMorphology radius="1" operator="erode" in="SourceAlpha" result="effect2_dropShadow_4210_1001"/>
<feOffset dy="3"/>
<feGaussianBlur stdDeviation="2"/>
<feComposite in2="hardAlpha" operator="out"/>
<feColorMatrix type="matrix" values="0 0 0 0 0.164706 0 0 0 0 0.164706 0 0 0 0 0.164706 0 0 0 0.14 0"/>
<feBlend mode="normal" in2="effect1_dropShadow_4210_1001" result="effect2_dropShadow_4210_1001"/>
<feBlend mode="normal" in="SourceGraphic" in2="effect2_dropShadow_4210_1001" result="shape"/>
<feColorMatrix in="SourceAlpha" type="matrix" values="0 0 0 0 0 0 0 0 0 0 0 0 0 0 0 0 0 0 127 0" result="hardAlpha"/>
<feOffset dy="-3"/>
<feGaussianBlur stdDeviation="1.5"/>
<feComposite in2="hardAlpha" operator="arithmetic" k2="-1" k3="1"/>
<feColorMatrix type="matrix" values="0 0 0 0 0 0 0 0 0 0 0 0 0 0 0 0 0 0 0.1 0"/>
<feBlend mode="normal" in2="shape" result="effect3_innerShadow_4210_1001"/>
<feColorMatrix in="SourceAlpha" type="matrix" values="0 0 0 0 0 0 0 0 0 0 0 0 0 0 0 0 0 0 127 0" result="hardAlpha"/>
<feOffset dy="3"/>
<feGaussianBlur stdDeviation="1.5"/>
<feComposite in2="hardAlpha" operator="arithmetic" k2="-1" k3="1"/>
<feColorMatrix type="matrix" values="0 0 0 0 1 0 0 0 0 1 0 0 0 0 1 0 0 0 0.1 0"/>
<feBlend mode="normal" in2="effect3_innerShadow_4210_1001" result="effect4_innerShadow_4210_1001"/>
<feColorMatrix in="SourceAlpha" type="matrix" values="0 0 0 0 0 0 0 0 0 0 0 0 0 0 0 0 0 0 127 0" result="hardAlpha"/>
<feMorphology radius="1" operator="erode" in="SourceAlpha" result="effect5_innerShadow_4210_1001"/>
<feOffset/>
<feComposite in2="hardAlpha" operator="arithmetic" k2="-1" k3="1"/>
<feColorMatrix type="matrix" values="0 0 0 0 0.0627451 0 0 0 0 0.0941176 0 0 0 0 0.156863 0 0 0 0.24 0"/>
<feBlend mode="normal" in2="effect4_innerShadow_4210_1001" result="effect5_innerShadow_4210_1001"/>
</filter>
<filter id="filter1_d_4210_1001" x="6" y="5.25" width="42" height="42" filterUnits="userSpaceOnUse" color-interpolation-filters="sRGB">
<feFlood flood-opacity="0" result="BackgroundImageFix"/>
<feColorMatrix in="SourceAlpha" type="matrix" values="0 0 0 0 0 0 0 0 0 0 0 0 0 0 0 0 0 0 127 0" result="hardAlpha"/>
<feMorphology radius="1.5" operator="erode" in="SourceAlpha" result="effect1_dropShadow_4210_1001"/>
<feOffset dy="2.25"/>
<feGaussianBlur stdDeviation="2.25"/>
<feComposite in2="hardAlpha" operator="out"/>
<feColorMatrix type="matrix" values="0 0 0 0 0.141176 0 0 0 0 0.141176 0 0 0 0 0.141176 0 0 0 0.1 0"/>
<feBlend mode="normal" in2="BackgroundImageFix" result="effect1_dropShadow_4210_1001"/>
<feBlend mode="normal" in="SourceGraphic" in2="effect1_dropShadow_4210_1001" result="shape"/>
</filter>
<linearGradient id="paint0_linear_4210_1001" x1="24" y1="5.96047e-07" x2="26" y2="48" gradientUnits="userSpaceOnUse">
<stop stop-color="white" stop-opacity="0"/>
<stop offset="1" stop-color="white" stop-opacity="0.12"/>
</linearGradient>
<linearGradient id="paint1_linear_4210_1001" x1="40.5275" y1="15.1123" x2="40.5275" y2="23.0969" gradientUnits="userSpaceOnUse">
<stop stop-color="white" stop-opacity="0.8"/>
<stop offset="1" stop-color="white" stop-opacity="0.5"/>
</linearGradient>
<linearGradient id="paint2_linear_4210_1001" x1="34.3271" y1="15.1816" x2="34.3271" y2="28.742" gradientUnits="userSpaceOnUse">
<stop stop-color="white" stop-opacity="0.8"/>
<stop offset="1" stop-color="white" stop-opacity="0.5"/>
</linearGradient>
<linearGradient id="paint3_linear_4210_1001" x1="23.3502" y1="15.1934" x2="23.3502" y2="34.3892" gradientUnits="userSpaceOnUse">
<stop stop-color="white" stop-opacity="0.8"/>
<stop offset="1" stop-color="white" stop-opacity="0.5"/>
</linearGradient>
<linearGradient id="paint4_linear_4210_1001" x1="27" y1="0" x2="27" y2="48" gradientUnits="userSpaceOnUse">
<stop stop-color="white" stop-opacity="0.12"/>
<stop offset="1" stop-color="white" stop-opacity="0"/>
</linearGradient>
<clipPath id="clip0_4210_1001">
<rect x="3" width="48" height="48" rx="12" fill="white"/>
</clipPath>
</defs>
</svg>
